HIERARCHY
ROOT mixamorig:Hips
{
	OFFSET -0.000419 0.014164 2.091508
	CHANNELS 6 Xposition Yposition Zposition Xrotation Yrotation Zrotation
	JOINT mixamorig:Spine
	{
		OFFSET -0.001948 0.038898 0.198048
		CHANNELS 6 Xposition Yposition Zposition Xrotation Yrotation Zrotation
		JOINT mixamorig:Spine1
		{
			OFFSET -0.002704 0.023603 0.235004
			CHANNELS 3 Xrotation Yrotation Zrotation
			JOINT mixamorig:Spine2
			{
				OFFSET -0.001091 0.011954 0.278074
				CHANNELS 3 Xrotation Yrotation Zrotation
				JOINT mixamorig:Neck
				{
					OFFSET 0.005730 -0.037617 0.310620
					CHANNELS 6 Xposition Yposition Zposition Xrotation Yrotation Zrotation
					JOINT mixamorig:Head
					{
						OFFSET 0.010419 -0.065134 0.222311
						CHANNELS 6 Xposition Yposition Zposition Xrotation Yrotation Zrotation
						End Site
						{
							OFFSET 0.010419 -0.065135 0.222311
						}
					}
				}
				JOINT mixamorig:LeftShoulder
				{
					OFFSET 0.129541 -0.026782 0.188949
					CHANNELS 6 Xposition Yposition Zposition Xrotation Yrotation Zrotation
					JOINT mixamorig:LeftArm
					{
						OFFSET 0.262609 0.040542 0.007741
						CHANNELS 3 Xrotation Yrotation Zrotation
						JOINT mixamorig:LeftForeArm
						{
							OFFSET 0.551278 0.000000 -0.000000
							CHANNELS 6 Xposition Yposition Zposition Xrotation Yrotation Zrotation
							JOINT mixamorig:LeftHand
							{
								OFFSET 0.527734 -0.000000 -0.000000
								CHANNELS 3 Xrotation Yrotation Zrotation
								End Site
								{
									OFFSET 0.527734 -0.000000 0.000000
								}
							}
						}
					}
				}
				JOINT mixamorig:RightShoulder
				{
					OFFSET -0.126373 -0.021809 0.192154
					CHANNELS 6 Xposition Yposition Zposition Xrotation Yrotation Zrotation
					JOINT mixamorig:RightArm
					{
						OFFSET -0.263355 0.054230 0.004609
						CHANNELS 3 Xrotation Yrotation Zrotation
						JOINT mixamorig:RightForeArm
						{
							OFFSET -0.558427 0.000000 0.000000
							CHANNELS 6 Xposition Yposition Zposition Xrotation Yrotation Zrotation
							JOINT mixamorig:RightHand
							{
								OFFSET -0.503137 0.000000 -0.000000
								CHANNELS 6 Xposition Yposition Zposition Xrotation Yrotation Zrotation
								End Site
								{
									OFFSET -0.503137 -0.000000 0.000000
								}
							}
						}
					}
				}
			}
		}
	}
	JOINT mixamorig:LeftUpLeg
	{
		OFFSET 0.185244 -0.026620 -0.138385
		CHANNELS 6 Xposition Yposition Zposition Xrotation Yrotation Zrotation
		JOINT mixamorig:LeftLeg
		{
			OFFSET -0.004065 0.015108 -0.852313
			CHANNELS 3 Xrotation Yrotation Zrotation
			JOINT mixamorig:LeftFoot
			{
				OFFSET 0.004508 0.051445 -0.854151
				CHANNELS 3 Xrotation Yrotation Zrotation
				JOINT mixamorig:LeftToeBase
				{
					OFFSET 0.026925 -0.242907 -0.213948
					CHANNELS 3 Xrotation Yrotation Zrotation
					End Site
					{
						OFFSET -0.005614 -0.324736 0.004268
					}
				}
			}
		}
	}
	JOINT mixamorig:RightUpLeg
	{
		OFFSET -0.184403 -0.001603 -0.144117
		CHANNELS 6 Xposition Yposition Zposition Xrotation Yrotation Zrotation
		JOINT mixamorig:RightLeg
		{
			OFFSET 0.005493 -0.010027 -0.848120
			CHANNELS 3 Xrotation Yrotation Zrotation
			JOINT mixamorig:RightFoot
			{
				OFFSET -0.005940 0.051576 -0.852616
				CHANNELS 3 Xrotation Yrotation Zrotation
				JOINT mixamorig:RightToeBase
				{
					OFFSET -0.031537 -0.248182 -0.214912
					CHANNELS 6 Xposition Yposition Zposition Xrotation Yrotation Zrotation
					End Site
					{
						OFFSET -0.045720 -0.326606 0.003764
					}
				}
			}
		}
	}
}
MOTION
Frames: 4
Frame Time: 0.033333
1.160778 0.295638 1.830999 21.968754 -2.926482 -17.792342 -0.001948 0.038898 0.198048 17.983133 14.120030 11.411247 -1.910650 2.884275 2.162054 -1.867103 3.006376 2.027311 0.005730 -0.037617 0.310621 -9.029938 1.433112 -1.444108 0.010419 -0.065134 0.222311 -18.332327 1.561224 -8.825581 0.129541 -0.026781 0.188948 0.110798 -4.270847 1.203610 -22.560707 38.307638 42.682047 0.551278 0.000001 -0.000000 -0.000041 0.000017 -71.914679 0.433440 -25.014654 -3.136487 -0.126373 -0.021809 0.192154 0.000198 9.968355 -1.855397 -34.219111 -8.714816 31.791498 -0.558427 0.000000 0.000000 -0.000006 0.000010 54.156829 -0.503137 0.000000 0.000000 -12.320736 8.495626 28.932166 0.185244 -0.026620 -0.138386 -69.826964 -17.774900 1.681855 48.094241 10.310712 4.593841 2.188288 -4.243461 25.478359 -6.507222 0.000004 -0.000005 -0.184403 -0.001603 -0.144117 9.551898 -3.880504 -6.276737 20.216194 -0.825695 -5.740958 23.950849 -29.824199 4.868159 -0.031537 -0.248182 -0.214912 -6.190115 0.925896 0.016967 
1.192366 0.343643 1.834287 22.145548 -4.769504 -19.390024 -0.001948 0.038898 0.198048 15.336457 14.749491 13.430592 -1.392393 3.342161 2.383593 -1.333046 3.451523 2.256861 0.005730 -0.037617 0.310621 -8.875523 1.387092 -1.596978 0.010418 -0.065135 0.222311 -17.287274 1.434502 -9.563466 0.129541 -0.026782 0.188949 0.068114 -4.415562 2.063054 -21.899569 41.489988 44.794894 0.551278 0.000000 -0.000000 -0.000039 0.000020 -70.888894 0.802932 -24.180891 -2.947805 -0.126373 -0.021809 0.192154 -0.008559 11.141332 -2.750492 -34.093292 -11.147155 36.457514 -0.558427 0.000000 0.000000 -0.000005 0.000007 58.052578 -0.503137 0.000000 -0.000000 -11.142825 7.791467 32.272473 0.185244 -0.026620 -0.138385 -69.846191 -16.332061 1.486105 44.434902 10.354333 4.167278 5.265150 -4.554043 28.258463 -6.604139 0.000002 -0.000012 -0.184403 -0.001603 -0.144116 14.263064 -5.879043 -6.071814 10.262669 -1.856523 -2.490399 31.898691 -28.956017 6.812128 -0.031537 -0.248182 -0.214912 -7.978861 0.465795 0.008347 
1.231664 0.391346 1.830922 21.821968 -6.342554 -20.758111 -0.001948 0.038898 0.198048 13.828947 14.923760 14.705413 -1.041144 3.862386 2.534091 -0.962755 3.961534 2.407151 0.005730 -0.037617 0.310621 -8.542530 1.357136 -1.726380 0.010419 -0.065134 0.222311 -16.533813 1.379626 -10.166004 0.129541 -0.026782 0.188948 0.016269 -4.488443 3.105420 -20.992504 44.540797 46.583956 0.551278 0.000000 -0.000000 -0.000030 -0.000004 -70.313621 1.983985 -23.439056 -2.748572 -0.126373 -0.021809 0.192154 -0.005925 12.017473 -3.353357 -33.814259 -13.886817 40.469615 -0.558427 0.000000 -0.000000 -0.000010 0.000013 62.980669 -0.503137 0.000000 -0.000000 -7.847465 7.724079 32.947873 0.185244 -0.026620 -0.138385 -69.907758 -14.611269 1.260696 41.596948 9.983321 3.807710 7.913740 -4.466952 29.767313 -6.924660 -0.000007 0.000005 -0.184403 -0.001603 -0.144117 18.553980 -7.291851 -5.366182 0.683980 -2.469909 -1.477865 37.985691 -25.706500 7.211585 -0.031537 -0.248182 -0.214912 -15.986240 1.801648 0.118680 
1.266765 0.450233 1.819965 21.028404 -7.476102 -21.810261 -0.001948 0.038897 0.198048 13.652458 14.540325 15.263262 -0.928449 4.409268 2.629542 -0.826867 4.506310 2.490808 0.005730 -0.037617 0.310621 -8.018626 1.430476 -1.806439 0.010418 -0.065134 0.222311 -16.144715 1.442250 -10.613779 0.129541 -0.026781 0.188948 -0.024800 -4.331112 3.968012 -19.752026 47.221609 48.048905 0.551278 0.000000 -0.000001 -0.000047 0.000007 -70.246351 3.248356 -23.194733 -2.646838 -0.126373 -0.021809 0.192154 -0.002192 12.337992 -3.514570 -33.415495 -16.089323 43.896434 -0.558427 0.000000 0.000000 -0.000005 0.000008 68.569744 -0.503137 0.000000 -0.000000 -3.575737 7.883069 30.973439 0.185244 -0.026620 -0.138386 -70.118927 -13.315743 0.995487 39.362155 9.611850 3.523822 9.998549 -3.942829 30.017998 -7.455745 0.000002 -0.000014 -0.184403 -0.001604 -0.144117 18.241818 -8.213559 -4.844989 0.633541 -2.646255 -2.507182 35.134483 -20.266085 5.158347 -0.031537 -0.248182 -0.214912 -32.672630 7.768050 1.458694 
